<?xml version="1.0" encoding="utf-8"?>
<!-- Generator: Adobe Illustrator 24.0.0, SVG Export Plug-In . SVG Version: 6.00 Build 0)  -->
<svg version="1.1" id="Layer_1" xmlns="http://www.w3.org/2000/svg" xmlns:xlink="http://www.w3.org/1999/xlink" x="0px" y="0px"
	 viewBox="0 0 1024 1024" style="enable-background:new 0 0 1024 1024;" xml:space="preserve">
<style type="text/css">
	.st0{fill:#E2E4CC;}
	.st1{fill:#331808;}
	.st2{fill:#F8A77C;}
	.st3{fill:#FFB481;}
	.st4{fill:#F5E132;}
	.st5{fill:#FFFFFF;}
	.st6{fill:#391D08;}
	.st7{fill:#DC8E64;}
	.st8{fill:#443F3D;}
</style>
<circle class="st0" cx="512" cy="512" r="512"/>
<path class="st1" d="M219,378l-0.3,553.7c20,14,41.1,26.7,63.1,37.8c13.8-30.1,27.1-52.3,31.6-60.4c-1.3-1.6-1.4-3.7-0.4-5.4
	c12.6-21.2,32.7-39.8,58.2-54.4c2.5-1.4,5.8-1.1,7.9,0.7c35.1,30,83.2,50.5,133.6,50.5c50.4,0,97.9-20.3,132.9-50.2
	c2.1-1.8,5.5-2.2,8-0.7c25.5,14.7,45.6,33.3,58.2,54.5c1,1.7,0.9,3.6-0.3,5.2c19.7,19.3,27,43.2,30.4,60.4
	c22.3-11.2,43.7-24.1,64-38.3V435L219,378z"/>
<path class="st2" d="M558.3,804.9v-69.9h-92.6v70.1c0,8.8-6.2,16.3-14.8,18c-27.1,5.5-51.9,14.4-73.3,26
	c35.4,31.7,82.6,51.2,134.8,51.2s99.4-19.5,134.8-51.2c-21.6-11.7-46.6-20.7-74.1-26.2C564.5,821.3,558.3,813.7,558.3,804.9z"/>
<path class="st3" d="M818,540.8c0-29.4-16.2-55.3-40.8-70.6C772.7,304.1,655.7,171.1,512,171.1s-260.7,133-265.3,299.2
	c-24.6,15.3-40.8,41.2-40.8,70.6c0,40.1,30.1,73.7,70.7,82.8C321,722.4,409.7,789.8,512,789.8s191-67.4,235.3-166.1
	C787.9,614.5,818,580.9,818,540.8z"/>
<path class="st4" d="M252.6,658.8L252.6,658.8c4.9,0,8.9-4,8.9-8.9v-47.8c0-4.9-4-8.9-8.9-8.9h0c-4.9,0-8.9,4-8.9,8.9V650
	C243.8,654.9,247.7,658.8,252.6,658.8z"/>
<path class="st4" d="M771.4,658.8L771.4,658.8c4.9,0,8.9-4,8.9-8.9v-47.8c0-4.9-4-8.9-8.9-8.9l0,0c-4.9,0-8.9,4-8.9,8.9V650
	C762.5,654.9,766.5,658.8,771.4,658.8z"/>
<path class="st5" d="M584,649.8c3.1,0,5.3,3.1,4.3,6c-11,31.7-40.8,54.6-76.3,54.6s-65.3-22.9-76.3-54.6c-1-2.9,1.2-6,4.3-6H584z"/>
<path class="st1" d="M235.5,494c-4.8-6.2-8-13.5-9.4-21.2c-12.1-64.5-49.5-362.3,292.6-362.3c0,0,299.7,0,287.2,337.6
	c-1,28-12.8,54.6-32.9,74.2h0c-2.4,2.3-6.4,1.6-7.8-1.4c-10.8-23.3-52.7-104-122.9-126.6c-82.3-26.6-227.5-75.3-238.4-97.5
	c0,0-19.5,84.2-69.3,124.1c-39.4,31.5-62.6,79.7-70.5,98.5c-1.5,3.4-6.1,4-8.4,1L235.5,494z"/>
<g>
	<g>
		<circle class="st6" cx="641.3" cy="511.2" r="29.6"/>
		<path class="st6" d="M674.9,456c-1.9,0-3.9-0.7-5.3-2.2c-7.6-7.6-17.6-11.7-28.3-11.7c-10.7,0-20.8,4.2-28.3,11.7
			c-2.9,2.9-7.7,2.9-10.7,0c-2.9-2.9-2.9-7.7,0-10.7c10.4-10.4,24.3-16.2,39-16.2c14.7,0,28.6,5.7,39,16.2c2.9,2.9,2.9,7.7,0,10.7
			C678.8,455.3,676.9,456,674.9,456z"/>
		<circle class="st6" cx="382.7" cy="511.2" r="29.6"/>
		<path class="st6" d="M349.1,456c-1.9,0-3.9-0.7-5.3-2.2c-2.9-2.9-2.9-7.7,0-10.7c21.5-21.5,56.5-21.5,78,0c2.9,2.9,2.9,7.7,0,10.7
			c-2.9,2.9-7.7,2.9-10.7,0c-15.6-15.6-41.1-15.6-56.7,0C352.9,455.3,351,456,349.1,456z"/>
	</g>
	<path class="st7" d="M530.4,614.4h-36.8c-4.2,0-7.5-3.4-7.5-7.5s3.4-7.5,7.5-7.5h36.8c4.2,0,7.5,3.4,7.5,7.5
		S534.6,614.4,530.4,614.4z"/>
</g>
<path class="st8" d="M690.7,1036.8c0.1-0.1,0.1-0.3,0.2-0.5l-0.5,0.5H690.7z"/>
<path class="st0" d="M326.7,989.4c0.1,0,0.2,0.1,0.3,0.1c-2.2-17.8-4.6-37.4-7-52.8C322.3,952.2,324.6,971.7,326.7,989.4z"/>
<path class="st2" d="M320,936.7c-2.2-14.2-4.4-25-6.5-27.5c0-0.1-0.1-0.1-0.1-0.2c-4.5,8.1-17.8,30.3-31.6,60.4
	c14.6,7.4,29.6,14,44.9,20C324.6,971.7,322.3,952.2,320,936.7z"/>
<path class="st2" d="M698.4,989c14.9-5.8,29.4-12.3,43.6-19.5c-3.3-17.3-10.7-41.2-30.4-60.4c-0.1,0.1-0.1,0.2-0.2,0.3
	C707,914.7,702.5,955,698.4,989z"/>
<path class="st8" d="M320,936.7c2.4,15.4,4.7,35,7,52.8c57.4,22.2,119.8,34.5,185,34.5c65.7,0,128.5-12.4,186.2-34.9
	c4.1-34.1,8.5-74.5,13.3-80.1c0,0,0.1,0.1,0.1,0.1c1.1-1.6,1.3-3.5,0.3-5.2c-12.6-21.2-32.7-39.8-58.2-54.5c-2.5-1.4-5.9-1.1-8,0.7
	c-35,29.9-82.5,50.2-132.9,50.2c-50.4,0-98.5-20.5-133.6-50.5c-2.1-1.8-5.4-2.1-7.9-0.7c-25.5,14.7-45.6,33.3-58.2,54.4
	c-1,1.8-0.9,3.8,0.4,5.4c0,0,0,0,0,0C315.7,911.7,317.9,922.5,320,936.7z"/>
<path class="st0" d="M320,936.7c-2.1-14.3-4.4-25-6.7-27.7c0,0,0,0,0,0c0,0.1,0.1,0.1,0.1,0.2C315.6,911.8,317.8,922.5,320,936.7z"
	/>
<path class="st0" d="M698.2,989.1c0.1,0,0.1,0,0.2-0.1c4.1-34,8.7-74.3,13-79.6c0.1-0.1,0.1-0.2,0.2-0.3c0,0-0.1-0.1-0.1-0.1
	C706.7,914.6,702.3,955,698.2,989.1z"/>
</svg>
