<svg xmlns="http://www.w3.org/2000/svg" width="32" height="40" viewBox="0 0 32 40">
    <g fill="#404C5D" fill-rule="nonzero">
        <path d="M32 18.362c0-.843-.473-1.578-1.18-1.973v-.82h.512c.369 0 .668-.3.668-.672a.67.67 0 0 0-.668-.671h-.511V4.465c0-.024-.012-.044-.014-.067.528-.46.869-1.132.869-1.887A2.508 2.508 0 0 0 29.177 0c-.967 0-1.797.56-2.213 1.368-.028.022-.063.035-.089.064L16.072 13.084c-.852-.001-1.704-.005-2.554-.003h-.179c-1.645.003-2.627.995-2.63 2.652l-.002 4.556h-4.38a86.142 86.142 0 0 0-1.473.001c-1.478.014-2.512 1.058-2.515 2.537v2.986l-.002.005.002.005-.002 4.797c0 .371.3.672.668.672l6.314.005v.78l-5.33.002c-1.54 0-2.738.702-3.464 2.03-.739 1.35-.697 2.757.12 4.065.746 1.192 1.914 1.823 3.38 1.824L19.338 40l4.176-.002c2.267-.001 3.977-1.713 3.98-3.98a3.898 3.898 0 0 0-1.13-2.778 3.975 3.975 0 0 0-2.847-1.163l-5.61-.001v-.774l3.616.001a.675.675 0 0 0 .668-.671v-.445c0-2.875-.244-10.405-.34-11.31 0-.804-.102-1.509-.258-2.159l.007-.005 7.882-10.591v8.104h-.51a.67.67 0 1 0 0 1.343h.51v1.1a.663.663 0 0 0 .384.74l.04.02c.02.008.037.021.059.028.41.106.696.48.696.906a.935.935 0 0 1-.932.937.935.935 0 0 1-.932-.937.67.67 0 0 0-.668-.671.67.67 0 0 0-.668.671 2.275 2.275 0 0 0 2.268 2.278A2.28 2.28 0 0 0 32 18.361zm-11.482.586c.04.387.105 1.935.169 3.807-1.016.001-2.499.003-3.257 0-.794-.006-1.213-.434-1.214-1.238a2466.93 2466.93 0 0 1-.004-7.098c.535 0 1.073.003 1.607.008.109.004 2.694.1 2.7 4.52zm5.901-11.82l-3.375.407 3.098-3.342.277 2.934zm-4.337 5.528l-4.024.257 3.698-3.988.326 3.731zm1-3.773l2.942-.356-2.718 3.65-.224-3.294zm4.405-4.534c.327.304.731.527 1.184.621l-1.017 1.367-.167-1.988zm1.69-3.006c.642 0 1.161.524 1.161 1.168 0 .645-.521 1.168-1.16 1.168-.64 0-1.162-.523-1.162-1.168 0-.644.52-1.168 1.161-1.168zM25.42 34.189c.478.482.74 1.13.738 1.828 0 1.504-1.137 2.637-2.642 2.638H4.027c-1.009 0-1.747-.392-2.25-1.196-.553-.883-.58-1.793-.082-2.704.492-.897 1.242-1.333 2.294-1.333l19.527-.002a2.644 2.644 0 0 1 1.903.769zm-8.85-2.113H10.659v-.778h3.458l2.454.002v.776zm.672-2.119h-.718l-6.93-.007H3.675l-.002-1.574.002-1.887h.51a.67.67 0 1 0 0-1.343h-.51l.001-2.318c0-.742.446-1.188 1.191-1.195.485-.005.97-.001 1.457-.001h5.051c.37 0 .668-.3.668-.672l-.002-1.648.005-3.576c0-.906.4-1.31 1.295-1.312h.179l1.356-.004c-.002 2.114-.002 5.246.002 7.1.005 1.533 1.027 2.569 2.542 2.577.768.005 2.288.002 3.309 0 .065 2.164.118 4.484.123 5.864l-3.61-.004zm3.803-14.74a4.457 4.457 0 0 0-.73-1c-.036-.037-.073-.062-.11-.095l1.739-.111-.899 1.207z"/>
        <path d="M10.362 25H6.636c-.351 0-.636.358-.636.8 0 .442.286.8.636.8h3.728c.351 0 .636-.358.636-.8 0-.442-.286-.8-.638-.8zM23.004 38h.026A2.009 2.009 0 0 0 25 36.003a2.02 2.02 0 0 0-.58-1.432c-.745-.753-2.074-.77-2.836 0a2.013 2.013 0 0 0 1.42 3.43zm-.516-2.522a.715.715 0 0 1 .513-.214c.195 0 .377.076.51.212.137.137.212.323.21.522a.723.723 0 0 1-.707.718l-.01.642v-.642a.737.737 0 0 1-.727-.721.719.719 0 0 1 .211-.517zM2 36.001A2.013 2.013 0 0 0 4.005 38h.025A2.008 2.008 0 0 0 6 36.003a2.02 2.02 0 0 0-.58-1.432c-.743-.753-2.074-.77-2.834 0-.38.382-.588.89-.586 1.43zm1.49-.523a.715.715 0 0 1 .512-.214.71.71 0 0 1 .51.212c.136.137.211.323.21.522a.722.722 0 0 1-.708.718l-.01.642v-.642a.737.737 0 0 1-.725-.721.719.719 0 0 1 .21-.517zM15.636 35.262a.643.643 0 0 0 .626-.646.647.647 0 0 0-.616-.616.643.643 0 0 0-.646.626.648.648 0 0 0 .636.636zM13.654 37a.643.643 0 0 0-.654.618.649.649 0 0 0 .63.644.643.643 0 0 0 .634-.638.652.652 0 0 0-.61-.624zM17.624 35.264c.34.002.64-.296.64-.636a.649.649 0 0 0-.646-.628.65.65 0 0 0-.618.656c.012.326.3.606.624.608zM13.652 35.264a.655.655 0 0 0 .612-.624.637.637 0 0 0-.63-.64.65.65 0 0 0-.634.642.656.656 0 0 0 .652.622zM11.65 35.263c.342-.01.63-.32.614-.658a.646.646 0 0 0-.668-.604.652.652 0 0 0-.596.636c.006.34.312.636.65.626zM9.634 35.262a.65.65 0 0 0 .63-.602.646.646 0 0 0-.612-.66.646.646 0 0 0-.652.62.65.65 0 0 0 .634.642zM17.66 37a.649.649 0 0 0-.66.613.651.651 0 0 0 .624.65c.34.006.64-.292.638-.634A.647.647 0 0 0 17.66 37zM15.606 38.266a.652.652 0 0 0 .658-.618.652.652 0 0 0-.628-.648.649.649 0 0 0-.636.638c.002.326.28.614.606.628zM11.626 38.264a.651.651 0 0 0 .638-.636.641.641 0 0 0-.604-.628.653.653 0 0 0-.66.614c-.01.336.29.646.626.65zM9.654 38.264a.65.65 0 0 0 .608-.626.646.646 0 0 0-.634-.638.647.647 0 0 0-.628.644.65.65 0 0 0 .654.62z"/>
    </g>
</svg>
